<?xml version="1.0" encoding="UTF-8" standalone="no"?><svg xmlns="http://www.w3.org/2000/svg" xmlns:xlink="http://www.w3.org/1999/xlink" contentScriptType="application/ecmascript" contentStyleType="text/css" height="342px" preserveAspectRatio="none" style="width:481px;height:342px;" version="1.1" viewBox="0 0 481 342" width="481px" zoomAndPan="magnify"><defs><filter height="300%" id="f6qkzibwdlsvx" width="300%" x="-1" y="-1"><feGaussianBlur result="blurOut" stdDeviation="2.0"/><feColorMatrix in="blurOut" result="blurOut2" type="matrix" values="0 0 0 0 0 0 0 0 0 0 0 0 0 0 0 0 0 0 .4 0"/><feOffset dx="4.0" dy="4.0" in="blurOut2" result="blurOut3"/><feBlend in="SourceGraphic" in2="blurOut3" mode="normal"/></filter></defs><g><line style="stroke: #A80036; stroke-width: 1.0; stroke-dasharray: 5.0,5.0;" x1="23" x2="23" y1="88.2969" y2="257.9609"/><line style="stroke: #A80036; stroke-width: 1.0; stroke-dasharray: 5.0,5.0;" x1="161.5" x2="161.5" y1="88.2969" y2="257.9609"/><line style="stroke: #A80036; stroke-width: 1.0; stroke-dasharray: 5.0,5.0;" x1="332" x2="332" y1="88.2969" y2="257.9609"/><line style="stroke: #A80036; stroke-width: 1.0; stroke-dasharray: 5.0,5.0;" x1="438" x2="438" y1="88.2969" y2="257.9609"/><text fill="#000000" font-family="sans-serif" font-size="14" lengthAdjust="spacingAndGlyphs" textLength="30" x="5" y="84.9951">Felix</text><ellipse cx="23" cy="15" fill="#FEFECE" filter="url(#f6qkzibwdlsvx)" rx="8" ry="8" style="stroke: #A80036; stroke-width: 2.0;"/><path d="M23,23 L23,50 M10,31 L36,31 M23,50 L10,65 M23,50 L36,65 " fill="none" filter="url(#f6qkzibwdlsvx)" style="stroke: #A80036; stroke-width: 2.0;"/><text fill="#000000" font-family="sans-serif" font-size="14" lengthAdjust="spacingAndGlyphs" textLength="30" x="5" y="269.9561">Felix</text><ellipse cx="23" cy="283.2578" fill="#FEFECE" filter="url(#f6qkzibwdlsvx)" rx="8" ry="8" style="stroke: #A80036; stroke-width: 2.0;"/><path d="M23,291.2578 L23,318.2578 M10,299.2578 L36,299.2578 M23,318.2578 L10,333.2578 M23,318.2578 L36,333.2578 " fill="none" filter="url(#f6qkzibwdlsvx)" style="stroke: #A80036; stroke-width: 2.0;"/><rect fill="#FEFECE" filter="url(#f6qkzibwdlsvx)" height="30.2969" style="stroke: #A80036; stroke-width: 1.5;" width="61" x="129.5" y="53"/><text fill="#000000" font-family="sans-serif" font-size="14" lengthAdjust="spacingAndGlyphs" textLength="47" x="136.5" y="72.9951">GitHub</text><rect fill="#FEFECE" filter="url(#f6qkzibwdlsvx)" height="30.2969" style="stroke: #A80036; stroke-width: 1.5;" width="61" x="129.5" y="256.9609"/><text fill="#000000" font-family="sans-serif" font-size="14" lengthAdjust="spacingAndGlyphs" textLength="47" x="136.5" y="276.9561">GitHub</text><rect fill="#FEFECE" filter="url(#f6qkzibwdlsvx)" height="30.2969" style="stroke: #A80036; stroke-width: 1.5;" width="70" x="295" y="53"/><text fill="#000000" font-family="sans-serif" font-size="14" lengthAdjust="spacingAndGlyphs" textLength="56" x="302" y="72.9951">Blog API</text><rect fill="#FEFECE" filter="url(#f6qkzibwdlsvx)" height="30.2969" style="stroke: #A80036; stroke-width: 1.5;" width="70" x="295" y="256.9609"/><text fill="#000000" font-family="sans-serif" font-size="14" lengthAdjust="spacingAndGlyphs" textLength="56" x="302" y="276.9561">Blog API</text><text fill="#000000" font-family="sans-serif" font-size="14" lengthAdjust="spacingAndGlyphs" textLength="78" x="396" y="84.9951">DynamoDB</text><path d="M420,36 C420,26 438,26 438,26 C438,26 456,26 456,36 L456,62 C456,72 438,72 438,72 C438,72 420,72 420,62 L420,36 " fill="#FEFECE" filter="url(#f6qkzibwdlsvx)" style="stroke: #000000; stroke-width: 1.5;"/><path d="M420,36 C420,46 438,46 438,46 C438,46 456,46 456,36 " fill="none" style="stroke: #000000; stroke-width: 1.5;"/><text fill="#000000" font-family="sans-serif" font-size="14" lengthAdjust="spacingAndGlyphs" textLength="78" x="396" y="269.9561">DynamoDB</text><path d="M420,283.2578 C420,273.2578 438,273.2578 438,273.2578 C438,273.2578 456,273.2578 456,283.2578 L456,309.2578 C456,319.2578 438,319.2578 438,319.2578 C438,319.2578 420,319.2578 420,309.2578 L420,283.2578 " fill="#FEFECE" filter="url(#f6qkzibwdlsvx)" style="stroke: #000000; stroke-width: 1.5;"/><path d="M420,283.2578 C420,293.2578 438,293.2578 438,293.2578 C438,293.2578 456,293.2578 456,283.2578 " fill="none" style="stroke: #000000; stroke-width: 1.5;"/><polygon fill="#A80036" points="150,115.4297,160,119.4297,150,123.4297,154,119.4297" style="stroke: #A80036; stroke-width: 1.0;"/><line style="stroke: #A80036; stroke-width: 1.0;" x1="23" x2="156" y1="119.4297" y2="119.4297"/><text fill="#000000" font-family="sans-serif" font-size="13" lengthAdjust="spacingAndGlyphs" textLength="115" x="30" y="114.3638">Commit Blog post</text><polygon fill="#A80036" points="320,144.5625,330,148.5625,320,152.5625,324,148.5625" style="stroke: #A80036; stroke-width: 1.0;"/><line style="stroke: #A80036; stroke-width: 1.0;" x1="162" x2="326" y1="148.5625" y2="148.5625"/><text fill="#000000" font-family="monospace" font-size="13" lengthAdjust="spacingAndGlyphs" textLength="144" x="169" y="143.4966">POST /api/webhooks</text><polygon fill="#A80036" points="173,173.6953,163,177.6953,173,181.6953,169,177.6953" style="stroke: #A80036; stroke-width: 1.0;"/><line style="stroke: #A80036; stroke-width: 1.0;" x1="167" x2="331" y1="177.6953" y2="177.6953"/><text fill="#000000" font-family="sans-serif" font-size="13" lengthAdjust="spacingAndGlyphs" textLength="146" x="179" y="172.6294">fetch post files content</text><rect fill="#FBFB77" filter="url(#f6qkzibwdlsvx)" height="23" style="stroke: #A80036; stroke-width: 1.0;" width="151" x="256" y="190.6953"/><text fill="#000000" font-family="sans-serif" font-size="13" lengthAdjust="spacingAndGlyphs" textLength="143" x="260" y="206.7622">process files into JSON</text><polygon fill="#A80036" points="426,235.9609,436,239.9609,426,243.9609,430,239.9609" style="stroke: #A80036; stroke-width: 1.0;"/><line style="stroke: #A80036; stroke-width: 1.0;" x1="332" x2="432" y1="239.9609" y2="239.9609"/><text fill="#000000" font-family="sans-serif" font-size="13" lengthAdjust="spacingAndGlyphs" textLength="82" x="339" y="234.895">persist posts</text><!--MD5=[12065ec7d07c9b1a31d582dd4ee165e9]
@startuml content-sync
actor Felix
participant GitHub
participant "Blog API" as api
database DynamoDB

Felix -> GitHub: Commit Blog post
GitHub -> api: ""POST /api/webhooks""
api -> GitHub: fetch post files content
rnote over api: process files into JSON
api -> DynamoDB: persist posts
@enduml

PlantUML version 1.2020.19(Mon Oct 12 15:10:01 UTC 2020)
(GPL source distribution)
Java Runtime: OpenJDK Runtime Environment
JVM: OpenJDK 64-Bit Server VM
Default Encoding: UTF-8
Language: en
Country: null
--></g></svg>