<?xml version="1.0" encoding="UTF-8" standalone="no"?><svg xmlns="http://www.w3.org/2000/svg" xmlns:xlink="http://www.w3.org/1999/xlink" contentScriptType="application/ecmascript" contentStyleType="text/css" height="274px" preserveAspectRatio="none" style="width:422px;height:274px;" version="1.1" viewBox="0 0 422 274" width="422px" zoomAndPan="magnify"><defs><filter height="300%" id="f5t3brivgipog" width="300%" x="-1" y="-1"><feGaussianBlur result="blurOut" stdDeviation="2.0"/><feColorMatrix in="blurOut" result="blurOut2" type="matrix" values="0 0 0 0 0 0 0 0 0 0 0 0 0 0 0 0 0 0 .4 0"/><feOffset dx="4.0" dy="4.0" in="blurOut2" result="blurOut3"/><feBlend in="SourceGraphic" in2="blurOut3" mode="normal"/></filter></defs><g><line style="stroke: #A80036; stroke-width: 1.0; stroke-dasharray: 5.0,5.0;" x1="50" x2="50" y1="67.2969" y2="206.6953"/><line style="stroke: #A80036; stroke-width: 1.0; stroke-dasharray: 5.0,5.0;" x1="186" x2="186" y1="67.2969" y2="206.6953"/><line style="stroke: #A80036; stroke-width: 1.0; stroke-dasharray: 5.0,5.0;" x1="379" x2="379" y1="67.2969" y2="206.6953"/><rect fill="#FEFECE" filter="url(#f5t3brivgipog)" height="30.2969" style="stroke: #A80036; stroke-width: 1.5;" width="86" x="5" y="32"/><text fill="#000000" font-family="sans-serif" font-size="14" lengthAdjust="spacingAndGlyphs" textLength="72" x="12" y="51.9951">felixjung.io</text><rect fill="#FEFECE" filter="url(#f5t3brivgipog)" height="30.2969" style="stroke: #A80036; stroke-width: 1.5;" width="86" x="5" y="205.6953"/><text fill="#000000" font-family="sans-serif" font-size="14" lengthAdjust="spacingAndGlyphs" textLength="72" x="12" y="225.6904">felixjung.io</text><rect fill="#FEFECE" filter="url(#f5t3brivgipog)" height="30.2969" style="stroke: #A80036; stroke-width: 1.5;" width="70" x="149" y="32"/><text fill="#000000" font-family="sans-serif" font-size="14" lengthAdjust="spacingAndGlyphs" textLength="56" x="156" y="51.9951">Blog API</text><rect fill="#FEFECE" filter="url(#f5t3brivgipog)" height="30.2969" style="stroke: #A80036; stroke-width: 1.5;" width="70" x="149" y="205.6953"/><text fill="#000000" font-family="sans-serif" font-size="14" lengthAdjust="spacingAndGlyphs" textLength="56" x="156" y="225.6904">Blog API</text><text fill="#000000" font-family="sans-serif" font-size="14" lengthAdjust="spacingAndGlyphs" textLength="78" x="337" y="63.9951">DynamoDB</text><path d="M361,15 C361,5 379,5 379,5 C379,5 397,5 397,15 L397,41 C397,51 379,51 379,51 C379,51 361,51 361,41 L361,15 " fill="#FEFECE" filter="url(#f5t3brivgipog)" style="stroke: #000000; stroke-width: 1.5;"/><path d="M361,15 C361,25 379,25 379,25 C379,25 397,25 397,15 " fill="none" style="stroke: #000000; stroke-width: 1.5;"/><text fill="#000000" font-family="sans-serif" font-size="14" lengthAdjust="spacingAndGlyphs" textLength="78" x="337" y="218.6904">DynamoDB</text><path d="M361,231.9922 C361,221.9922 379,221.9922 379,221.9922 C379,221.9922 397,221.9922 397,231.9922 L397,257.9922 C397,267.9922 379,267.9922 379,267.9922 C379,267.9922 361,267.9922 361,257.9922 L361,231.9922 " fill="#FEFECE" filter="url(#f5t3brivgipog)" style="stroke: #000000; stroke-width: 1.5;"/><path d="M361,231.9922 C361,241.9922 379,241.9922 379,241.9922 C379,241.9922 397,241.9922 397,231.9922 " fill="none" style="stroke: #000000; stroke-width: 1.5;"/><polygon fill="#A80036" points="174,94.4297,184,98.4297,174,102.4297,178,98.4297" style="stroke: #A80036; stroke-width: 1.0;"/><line style="stroke: #A80036; stroke-width: 1.0;" x1="50" x2="180" y1="98.4297" y2="98.4297"/><text fill="#000000" font-family="monospace" font-size="13" lengthAdjust="spacingAndGlyphs" textLength="112" x="57" y="93.3638">GET /api/posts</text><polygon fill="#A80036" points="367,123.5625,377,127.5625,367,131.5625,371,127.5625" style="stroke: #A80036; stroke-width: 1.0;"/><line style="stroke: #A80036; stroke-width: 1.0;" x1="186" x2="373" y1="127.5625" y2="127.5625"/><text fill="#000000" font-family="sans-serif" font-size="13" lengthAdjust="spacingAndGlyphs" textLength="169" x="193" y="122.4966">get posts from posts table</text><polygon fill="#A80036" points="197,137.5625,187,141.5625,197,145.5625,193,141.5625" style="stroke: #A80036; stroke-width: 1.0;"/><line style="stroke: #A80036; stroke-width: 1.0; stroke-dasharray: 2.0,2.0;" x1="191" x2="378" y1="141.5625" y2="141.5625"/><rect fill="#FBFB77" filter="url(#f5t3brivgipog)" height="23" style="stroke: #A80036; stroke-width: 1.0;" width="90" x="141" y="154.5625"/><text fill="#000000" font-family="sans-serif" font-size="13" lengthAdjust="spacingAndGlyphs" textLength="82" x="145" y="170.6294">map content</text><polygon fill="#A80036" points="61,184.6953,51,188.6953,61,192.6953,57,188.6953" style="stroke: #A80036; stroke-width: 1.0;"/><line style="stroke: #A80036; stroke-width: 1.0; stroke-dasharray: 2.0,2.0;" x1="55" x2="185" y1="188.6953" y2="188.6953"/><!--MD5=[368506f466febf72470bc4bfcfc8333f]
@startuml content-fetch
participant felixjung.io
participant "Blog API" as api
database DynamoDB

felixjung.io -> api: ""GET /api/posts""
api -> DynamoDB: get posts from posts table
DynamoDB - -> api
rnote over api: map content
api - -> felixjung.io:
@enduml

PlantUML version 1.2020.19(Mon Oct 12 15:10:01 UTC 2020)
(GPL source distribution)
Java Runtime: OpenJDK Runtime Environment
JVM: OpenJDK 64-Bit Server VM
Default Encoding: UTF-8
Language: en
Country: null
--></g></svg>